<svg width="377" height="43" viewBox="0 0 377 43" fill="none" xmlns="http://www.w3.org/2000/svg">
<path d="M41.956 24.418C42.2507 24.418 42.4773 24.554 42.636 24.826C42.8173 25.098 42.908 25.472 42.908 25.948C42.908 26.832 42.6927 27.5347 42.262 28.056C41.0833 29.5067 39.9273 30.5607 38.794 31.218C37.6607 31.8527 36.4367 32.17 35.122 32.17C33.1273 32.17 31.6087 31.184 30.566 29.212C29.546 27.2173 29.036 24.3387 29.036 20.576C29.036 17.992 29.2967 14.9093 29.818 11.328H29.75C27.4833 17.5613 25.3073 23.976 23.222 30.572C22.9953 31.2747 22.712 31.762 22.372 32.034C22.032 32.306 21.5447 32.442 20.91 32.442C19.822 32.442 19.1193 31.898 18.802 30.81C18.2353 28.9967 17.7933 26.832 17.476 24.316C17.1587 21.7773 17 19.216 17 16.632C17 15.136 17.0453 13.8327 17.136 12.722H17.068C16.184 17.2553 15.3793 20.8027 14.654 23.364C13.9513 25.9027 12.9313 28.022 11.594 29.722C10.2567 31.422 8.5 32.272 6.324 32.272C5.14533 32.272 4.09133 32.0227 3.162 31.524C2.25533 31.0027 1.55267 30.3113 1.054 29.45C0.555333 28.5887 0.306 27.6593 0.306 26.662C0.306 25.9593 0.487333 25.404 0.85 24.996C1.21267 24.5653 1.72267 24.35 2.38 24.35C3.264 24.35 3.808 24.7807 4.012 25.642C4.216 26.4807 4.54467 27.1267 4.998 27.58C5.474 28.0107 6.052 28.226 6.732 28.226C7.59333 28.226 8.42067 27.4893 9.214 26.016C10.03 24.5427 10.8687 22.174 11.73 18.91C12.614 15.646 13.566 11.3167 14.586 5.922C14.7673 4.92467 15.1413 4.222 15.708 3.814C16.2747 3.38333 17.1133 3.168 18.224 3.168C20.0827 3.168 20.944 4.154 20.808 6.126C20.6947 8.05266 20.638 9.798 20.638 11.362C20.638 15.034 20.91 19.3407 21.454 24.282H21.522C22.1113 21.766 23.0293 18.8193 24.276 15.442C25.5227 12.0647 26.8487 8.88 28.254 5.888C28.6167 5.09467 28.934 4.51667 29.206 4.154C29.478 3.79133 29.784 3.542 30.124 3.406C30.464 3.24733 30.94 3.168 31.552 3.168C32.504 3.168 33.2293 3.406 33.728 3.882C34.2493 4.33533 34.4647 4.99267 34.374 5.854C33.8073 11.566 33.524 16.02 33.524 19.216C33.524 22.004 33.7393 24.1913 34.17 25.778C34.6007 27.342 35.3147 28.124 36.312 28.124C37.06 28.124 37.774 27.8973 38.454 27.444C39.1567 26.968 40.018 26.118 41.038 24.894C41.2873 24.5767 41.5933 24.418 41.956 24.418ZM65.8176 24.418C66.1123 24.418 66.339 24.554 66.4976 24.826C66.679 25.098 66.7696 25.472 66.7696 25.948C66.7696 26.8547 66.5543 27.5573 66.1236 28.056C63.8796 30.7987 61.783 32.17 59.8336 32.17C58.3603 32.17 57.2836 31.6487 56.6036 30.606C55.9463 29.5633 55.6176 28.1807 55.6176 26.458V25.948C54.371 27.8293 52.9883 29.3367 51.4696 30.47C49.9736 31.6033 48.3983 32.17 46.7436 32.17C44.7716 32.17 43.1963 31.5807 42.0176 30.402C40.8616 29.2233 40.2836 27.7047 40.2836 25.846C40.2836 24.486 40.3856 23.194 40.5896 21.97C40.7936 20.746 41.111 19.4427 41.5416 18.06C41.7456 17.4027 42.0743 16.9267 42.5276 16.632C43.0036 16.3147 43.6836 16.156 44.5676 16.156C45.5876 16.156 46.0976 16.428 46.0976 16.972C46.0976 17.1987 45.9276 18.0147 45.5876 19.42L45.3496 20.44L44.8736 22.48C45.4856 21.868 46.211 21.3693 47.0496 20.984C47.911 20.576 48.7836 20.372 49.6676 20.372C50.7103 20.372 51.5716 20.6893 52.2516 21.324C52.9316 21.936 53.317 22.8087 53.4076 23.942C54.2916 22.8767 55.017 21.8793 55.5836 20.95C56.1503 19.998 56.6376 19.012 57.0456 17.992C57.2496 17.312 57.5103 16.836 57.8276 16.564C58.1676 16.292 58.7116 16.156 59.4596 16.156C60.6156 16.156 61.1936 16.5413 61.1936 17.312C61.1936 17.8787 60.9783 19.1933 60.5476 21.256C60.0036 23.7493 59.7316 25.438 59.7316 26.322C59.7316 27.002 59.8223 27.5233 60.0036 27.886C60.185 28.2487 60.491 28.43 60.9216 28.43C61.3296 28.43 61.8396 28.1467 62.4516 27.58C63.0636 27.0133 63.8796 26.118 64.8996 24.894C65.1716 24.5767 65.4776 24.418 65.8176 24.418ZM49.9056 25.744C49.9056 24.5427 49.2596 23.942 47.9676 23.942C47.197 23.942 46.517 24.1573 45.9276 24.588C45.361 25.0187 44.9076 25.5173 44.5676 26.084C44.6583 26.9227 44.8963 27.546 45.2816 27.954C45.667 28.362 46.2563 28.566 47.0496 28.566C47.9563 28.566 48.659 28.3167 49.1576 27.818C49.6563 27.3193 49.9056 26.628 49.9056 25.744ZM91.1067 21.562C91.4014 21.562 91.6281 21.7093 91.7867 22.004C91.9454 22.2987 92.0247 22.6727 92.0247 23.126C92.0247 23.6927 91.9454 24.1347 91.7867 24.452C91.6281 24.7467 91.3787 24.9507 91.0387 25.064C89.6787 25.54 88.1827 25.812 86.5507 25.88C86.0974 27.7613 85.2361 29.28 83.9667 30.436C82.7201 31.592 81.3374 32.17 79.8187 32.17C77.5294 32.17 75.8634 31.2973 74.8207 29.552C73.7781 27.8067 73.2567 25.2793 73.2567 21.97C73.2567 19.046 73.6194 15.8727 74.3447 12.45C75.0701 9.00466 76.1241 6.08066 77.5067 3.678C78.9121 1.25266 80.5781 0.0399981 82.5047 0.0399981C83.5474 0.0399981 84.3861 0.493332 85.0207 1.4C85.6554 2.284 85.9727 3.44 85.9727 4.868C85.9727 6.72667 85.6214 8.574 84.9187 10.41C84.2161 12.246 83.0487 14.1727 81.4167 16.19C82.9354 16.3033 84.1707 16.938 85.1227 18.094C86.0747 19.2273 86.6414 20.6327 86.8227 22.31C87.8881 22.242 89.1574 22.0153 90.6307 21.63C90.7667 21.5847 90.9254 21.562 91.1067 21.562ZM81.7227 3.406C81.2694 3.406 80.7707 4.086 80.2267 5.446C79.7054 6.78333 79.2181 8.608 78.7647 10.92C78.3114 13.232 77.9714 15.7593 77.7447 18.502C79.2407 15.7593 80.4307 13.3453 81.3147 11.26C82.2214 9.152 82.6747 7.282 82.6747 5.65C82.6747 4.92467 82.5841 4.36933 82.4027 3.984C82.2441 3.59867 82.0174 3.406 81.7227 3.406ZM79.9547 28.566C80.6574 28.566 81.2807 28.2713 81.8247 27.682C82.3687 27.0927 82.7314 26.2427 82.9127 25.132C82.2101 24.656 81.6661 24.0327 81.2807 23.262C80.9181 22.4913 80.7367 21.6753 80.7367 20.814C80.7367 20.4967 80.7821 20.066 80.8727 19.522H80.7707C79.8414 19.522 79.0594 19.9867 78.4247 20.916C77.8127 21.8227 77.5067 23.0467 77.5067 24.588C77.5067 25.88 77.7447 26.866 78.2207 27.546C78.7194 28.226 79.2974 28.566 79.9547 28.566ZM104.581 32.17C102.36 32.17 100.626 31.5467 99.3791 30.3C98.1551 29.0307 97.5431 27.3647 97.5431 25.302C97.5431 23.466 97.9057 21.8567 98.6311 20.474C99.3564 19.0913 100.297 18.026 101.453 17.278C102.609 16.53 103.822 16.156 105.091 16.156C106.338 16.156 107.301 16.53 107.981 17.278C108.684 18.0033 109.035 18.944 109.035 20.1C109.035 21.052 108.82 21.8567 108.389 22.514C107.981 23.1713 107.437 23.5 106.757 23.5C106.326 23.5 105.975 23.398 105.703 23.194C105.454 22.99 105.329 22.7067 105.329 22.344C105.329 22.1853 105.352 22.004 105.397 21.8C105.442 21.596 105.476 21.4487 105.499 21.358C105.612 21.018 105.669 20.7007 105.669 20.406C105.669 20.1113 105.59 19.8847 105.431 19.726C105.295 19.5673 105.091 19.488 104.819 19.488C104.298 19.488 103.81 19.726 103.357 20.202C102.904 20.6553 102.541 21.2787 102.269 22.072C101.997 22.8653 101.861 23.738 101.861 24.69C101.861 27.3193 103.006 28.634 105.295 28.634C106.224 28.634 107.222 28.328 108.287 27.716C109.375 27.0813 110.44 26.1407 111.483 24.894C111.755 24.5767 112.061 24.418 112.401 24.418C112.696 24.418 112.922 24.554 113.081 24.826C113.262 25.098 113.353 25.472 113.353 25.948C113.353 26.8093 113.138 27.512 112.707 28.056C111.642 29.3707 110.361 30.3907 108.865 31.116C107.392 31.8187 105.964 32.17 104.581 32.17ZM127.945 21.562C128.239 21.562 128.466 21.7093 128.625 22.004C128.783 22.2987 128.863 22.6727 128.863 23.126C128.863 24.214 128.534 24.86 127.877 25.064C126.517 25.54 125.021 25.812 123.389 25.88C122.958 27.784 122.108 29.314 120.839 30.47C119.569 31.6033 118.13 32.17 116.521 32.17C115.161 32.17 113.993 31.8413 113.019 31.184C112.067 30.5267 111.341 29.654 110.843 28.566C110.344 27.478 110.095 26.2993 110.095 25.03C110.095 23.3073 110.423 21.7773 111.081 20.44C111.738 19.08 112.645 18.026 113.801 17.278C114.957 16.5073 116.237 16.122 117.643 16.122C119.365 16.122 120.748 16.7227 121.791 17.924C122.856 19.1027 123.479 20.5647 123.661 22.31C124.726 22.242 125.995 22.0153 127.469 21.63C127.65 21.5847 127.809 21.562 127.945 21.562ZM116.793 28.566C117.518 28.566 118.141 28.2713 118.663 27.682C119.207 27.0927 119.569 26.2427 119.751 25.132C119.048 24.656 118.504 24.0327 118.119 23.262C117.756 22.4913 117.575 21.6753 117.575 20.814C117.575 20.4513 117.609 20.0887 117.677 19.726H117.507C116.6 19.726 115.841 20.168 115.229 21.052C114.639 21.9133 114.345 23.1373 114.345 24.724C114.345 25.9707 114.583 26.9227 115.059 27.58C115.557 28.2373 116.135 28.566 116.793 28.566ZM143.863 29.416C142.843 30.1187 141.211 31.1387 138.967 32.476C138.672 33.836 138.389 35.0147 138.117 36.012C137.55 38.052 136.711 39.616 135.601 40.704C134.49 41.792 133.221 42.336 131.793 42.336C130.841 42.336 130.047 42.0187 129.413 41.384C128.801 40.7493 128.495 39.956 128.495 39.004C128.495 38.188 128.687 37.406 129.073 36.658C129.481 35.9327 130.206 35.1167 131.249 34.21C132.314 33.3033 133.81 32.272 135.737 31.116V31.048C135.079 30.9347 134.558 30.5607 134.173 29.926C133.81 29.2687 133.629 28.4187 133.629 27.376C133.266 28.8493 132.699 30.0167 131.929 30.878C131.181 31.7393 130.342 32.17 129.413 32.17C128.415 32.17 127.588 31.7053 126.931 30.776C126.273 29.8467 125.945 28.668 125.945 27.24C125.945 25.5627 126.058 24.0213 126.285 22.616C126.511 21.188 126.885 19.6693 127.407 18.06C127.633 17.3573 127.951 16.87 128.359 16.598C128.789 16.3033 129.435 16.156 130.297 16.156C130.773 16.156 131.113 16.2353 131.317 16.394C131.521 16.53 131.623 16.768 131.623 17.108C131.623 17.2893 131.498 17.9013 131.249 18.944C131.022 19.7827 130.841 20.542 130.705 21.222C130.251 23.6247 130.025 25.2113 130.025 25.982C130.025 26.4353 130.081 26.764 130.195 26.968C130.308 27.172 130.489 27.274 130.739 27.274C131.351 27.274 132.087 26.4127 132.949 24.69C133.81 22.9673 134.603 20.7573 135.329 18.06C135.51 17.3573 135.793 16.87 136.179 16.598C136.564 16.3033 137.119 16.156 137.845 16.156C138.366 16.156 138.729 16.224 138.933 16.36C139.137 16.4733 139.239 16.7 139.239 17.04C139.239 17.584 138.955 19.08 138.389 21.528C138.139 22.548 137.913 23.5567 137.709 24.554C137.505 25.5513 137.403 26.2653 137.403 26.696C137.403 27.1267 137.459 27.4327 137.573 27.614C137.686 27.7727 137.856 27.852 138.083 27.852C138.173 27.852 138.275 27.8407 138.389 27.818C138.502 27.7953 138.615 27.784 138.729 27.784C138.887 27.784 139.001 27.8633 139.069 28.022C139.159 28.1807 139.193 28.498 139.171 28.974C140.621 28.0673 141.936 27.172 143.115 26.288C143.364 26.1067 143.625 26.016 143.897 26.016C144.191 26.016 144.418 26.152 144.577 26.424C144.758 26.696 144.849 27.0587 144.849 27.512C144.849 27.988 144.781 28.362 144.645 28.634C144.509 28.8833 144.248 29.144 143.863 29.416ZM132.507 39.14C133.096 39.14 133.663 38.7093 134.207 37.848C134.751 36.9867 135.125 35.842 135.329 34.414C132.971 35.8193 131.793 37.1453 131.793 38.392C131.793 38.8907 132.031 39.14 132.507 39.14ZM146.08 32.17C145.06 32.17 144.222 31.7053 143.564 30.776C142.93 29.824 142.612 28.6453 142.612 27.24C142.612 25.54 142.726 23.9873 142.952 22.582C143.179 21.154 143.553 19.6467 144.074 18.06C144.301 17.38 144.618 16.8927 145.026 16.598C145.434 16.3033 146.08 16.156 146.964 16.156C147.463 16.156 147.803 16.2353 147.984 16.394C148.188 16.5527 148.29 16.7907 148.29 17.108C148.29 17.2893 148.166 17.9013 147.916 18.944C147.69 19.7827 147.508 20.542 147.372 21.222C146.919 23.602 146.692 25.1887 146.692 25.982C146.692 26.458 146.749 26.798 146.862 27.002C146.976 27.1833 147.157 27.274 147.406 27.274C147.746 27.274 148.166 26.934 148.664 26.254C149.186 25.574 149.73 24.5427 150.296 23.16C150.886 21.7773 151.452 20.0773 151.996 18.06C152.178 17.38 152.45 16.8927 152.812 16.598C153.198 16.3033 153.764 16.156 154.512 16.156C155.034 16.156 155.396 16.224 155.6 16.36C155.804 16.4733 155.906 16.7 155.906 17.04C155.906 17.6067 155.623 19.1593 155.056 21.698C154.422 24.5993 154.104 26.39 154.104 27.07C154.104 27.5007 154.195 27.8407 154.376 28.09C154.558 28.3167 154.796 28.43 155.09 28.43C155.544 28.43 156.076 28.158 156.688 27.614C157.323 27.0473 158.162 26.1407 159.204 24.894C159.476 24.5767 159.782 24.418 160.122 24.418C160.417 24.418 160.644 24.554 160.802 24.826C160.984 25.098 161.074 25.472 161.074 25.948C161.074 26.8547 160.859 27.5573 160.428 28.056C159.454 29.2573 158.4 30.2433 157.266 31.014C156.156 31.7847 154.886 32.17 153.458 32.17C152.37 32.17 151.566 31.7507 151.044 30.912C150.546 30.0733 150.296 28.8947 150.296 27.376C149.911 28.9173 149.333 30.1073 148.562 30.946C147.792 31.762 146.964 32.17 146.08 32.17ZM162.5 32.17C161.094 32.17 159.972 31.66 159.134 30.64C158.295 29.62 157.876 28.2827 157.876 26.628C157.876 24.8147 158.295 23.1033 159.134 21.494C159.972 19.862 161.083 18.5587 162.466 17.584C163.871 16.5867 165.356 16.088 166.92 16.088C167.418 16.088 167.747 16.19 167.906 16.394C168.087 16.5753 168.234 16.9153 168.348 17.414C168.824 17.3233 169.322 17.278 169.844 17.278C170.954 17.278 171.51 17.6747 171.51 18.468C171.51 18.944 171.34 20.0773 171 21.868C170.478 24.4747 170.218 26.288 170.218 27.308C170.218 27.648 170.297 27.92 170.456 28.124C170.637 28.328 170.864 28.43 171.136 28.43C171.566 28.43 172.088 28.158 172.7 27.614C173.312 27.0473 174.139 26.1407 175.182 24.894C175.454 24.5767 175.76 24.418 176.1 24.418C176.394 24.418 176.621 24.554 176.78 24.826C176.961 25.098 177.052 25.472 177.052 25.948C177.052 26.8547 176.836 27.5573 176.406 28.056C175.476 29.212 174.49 30.1867 173.448 30.98C172.405 31.7733 171.396 32.17 170.422 32.17C169.674 32.17 168.982 31.9207 168.348 31.422C167.736 30.9007 167.271 30.198 166.954 29.314C165.775 31.218 164.29 32.17 162.5 32.17ZM163.724 28.736C164.222 28.736 164.698 28.4413 165.152 27.852C165.605 27.2627 165.934 26.4807 166.138 25.506L167.396 19.25C166.444 19.2727 165.56 19.6353 164.744 20.338C163.95 21.018 163.316 21.9247 162.84 23.058C162.364 24.1913 162.126 25.3927 162.126 26.662C162.126 27.3647 162.262 27.886 162.534 28.226C162.828 28.566 163.225 28.736 163.724 28.736ZM194.348 24.418C194.643 24.418 194.87 24.554 195.028 24.826C195.21 25.098 195.3 25.472 195.3 25.948C195.3 26.8547 195.085 27.5573 194.654 28.056C193.906 28.94 193.249 29.654 192.682 30.198C192.138 30.7193 191.458 31.184 190.642 31.592C189.849 31.9773 188.942 32.17 187.922 32.17C186.585 32.17 185.633 31.6487 185.066 30.606C184.5 29.5407 184.216 27.9427 184.216 25.812C184.216 24.7467 184.262 23.7153 184.352 22.718H184.284C183.378 25.7327 182.256 28.056 180.918 29.688C179.604 31.32 178.096 32.136 176.396 32.136C175.24 32.136 174.334 31.7167 173.676 30.878C173.019 30.0393 172.69 28.9853 172.69 27.716C172.69 26.5827 172.951 25.6647 173.472 24.962C173.994 24.2593 174.73 23.908 175.682 23.908C176.113 23.908 176.43 23.9987 176.634 24.18C176.861 24.3613 176.952 24.6107 176.906 24.928C176.725 26.016 176.634 26.764 176.634 27.172C176.634 27.988 176.838 28.396 177.246 28.396C177.473 28.396 177.722 28.226 177.994 27.886C178.289 27.546 178.776 26.7187 179.456 25.404C179.978 24.4067 180.51 23.2847 181.054 22.038C181.621 20.7913 182.086 19.6807 182.448 18.706C182.811 17.754 183.23 17.108 183.706 16.768C184.182 16.4053 184.862 16.224 185.746 16.224C186.608 16.224 187.242 16.394 187.65 16.734C188.058 17.074 188.262 17.6293 188.262 18.4L188.194 20.916C188.104 22.82 188.058 24.1913 188.058 25.03C188.058 27.41 188.546 28.6 189.52 28.6C189.928 28.6 190.325 28.4073 190.71 28.022C191.118 27.6367 191.742 26.934 192.58 25.914L193.43 24.894C193.702 24.5767 194.008 24.418 194.348 24.418ZM212.328 24.418C212.623 24.418 212.85 24.554 213.008 24.826C213.19 25.098 213.28 25.472 213.28 25.948C213.28 26.8547 213.065 27.5573 212.634 28.056C211.592 29.2573 210.515 30.2433 209.404 31.014C208.316 31.7847 207.07 32.17 205.664 32.17C204.735 32.17 203.919 31.898 203.216 31.354C202.174 31.898 200.995 32.17 199.68 32.17C197.618 32.17 195.997 31.592 194.818 30.436C193.662 29.2573 193.084 27.7273 193.084 25.846C193.084 24.486 193.186 23.194 193.39 21.97C193.594 20.746 193.912 19.4427 194.342 18.06C194.546 17.4027 194.875 16.9267 195.328 16.632C195.804 16.3147 196.484 16.156 197.368 16.156C198.388 16.156 198.898 16.428 198.898 16.972C198.898 17.1987 198.728 18.0147 198.388 19.42L198.15 20.44L197.674 22.48C198.286 21.868 199.012 21.3693 199.85 20.984C200.712 20.576 201.584 20.372 202.468 20.372C203.851 20.372 204.939 20.8253 205.732 21.732C206.548 22.6387 206.956 23.7947 206.956 25.2C206.956 26.288 206.696 27.3533 206.174 28.396C206.288 28.4187 206.446 28.43 206.65 28.43C207.398 28.43 208.112 28.158 208.792 27.614C209.472 27.07 210.345 26.1633 211.41 24.894C211.682 24.5767 211.988 24.418 212.328 24.418ZM199.85 28.566C200.757 28.566 201.46 28.3167 201.958 27.818C202.457 27.3193 202.706 26.628 202.706 25.744C202.706 24.5427 202.06 23.942 200.768 23.942C200.02 23.942 199.352 24.1573 198.762 24.588C198.196 25.0187 197.731 25.506 197.368 26.05C197.459 26.866 197.697 27.4893 198.082 27.92C198.468 28.3507 199.057 28.566 199.85 28.566ZM228.465 24.418C228.76 24.418 228.986 24.554 229.145 24.826C229.326 25.098 229.417 25.472 229.417 25.948C229.417 26.8547 229.202 27.5573 228.771 28.056C227.728 29.2573 226.652 30.2433 225.541 31.014C224.453 31.7847 223.206 32.17 221.801 32.17C220.622 32.17 219.795 31.8073 219.319 31.082C218.843 30.3567 218.605 29.2687 218.605 27.818C218.605 27.206 218.662 26.4693 218.775 25.608C216.78 25.608 215.398 25.5853 214.627 25.54C214.582 26.1747 214.559 26.6167 214.559 26.866V27.58C214.536 28.9853 214.502 29.9713 214.457 30.538C214.412 31.1047 214.276 31.524 214.049 31.796C213.822 32.0453 213.448 32.17 212.927 32.17C212.066 32.17 211.454 31.7167 211.091 30.81C210.751 29.9033 210.581 28.4527 210.581 26.458C210.581 23.5113 211 20.712 211.839 18.06C212.043 17.4027 212.372 16.9267 212.825 16.632C213.278 16.3147 213.936 16.156 214.797 16.156C215.25 16.156 215.568 16.2127 215.749 16.326C215.93 16.4393 216.021 16.6547 216.021 16.972C216.021 17.3347 215.851 18.1507 215.511 19.42C215.33 20.168 215.16 21.0747 215.001 22.14H219.353C219.58 21.0747 219.908 19.7147 220.339 18.06C220.52 17.38 220.792 16.8927 221.155 16.598C221.54 16.3033 222.107 16.156 222.855 16.156C223.376 16.156 223.739 16.224 223.943 16.36C224.147 16.4733 224.249 16.7 224.249 17.04C224.249 17.6067 223.966 19.1593 223.399 21.698C222.764 24.5993 222.447 26.39 222.447 27.07C222.447 27.5007 222.538 27.8407 222.719 28.09C222.9 28.3167 223.138 28.43 223.433 28.43C223.886 28.43 224.419 28.158 225.031 27.614C225.666 27.0473 226.504 26.1407 227.547 24.894C227.819 24.5767 228.125 24.418 228.465 24.418ZM252.32 24.418C252.614 24.418 252.841 24.554 253 24.826C253.181 25.098 253.272 25.472 253.272 25.948C253.272 26.8547 253.056 27.5573 252.626 28.056C250.382 30.7987 248.285 32.17 246.336 32.17C244.862 32.17 243.786 31.6487 243.106 30.606C242.448 29.5633 242.12 28.1807 242.12 26.458V25.948C240.873 27.8293 239.49 29.3367 237.972 30.47C236.476 31.6033 234.9 32.17 233.246 32.17C231.274 32.17 229.698 31.5807 228.52 30.402C227.364 29.2233 226.786 27.7047 226.786 25.846C226.786 24.486 226.888 23.194 227.092 21.97C227.296 20.746 227.613 19.4427 228.044 18.06C228.248 17.4027 228.576 16.9267 229.03 16.632C229.506 16.3147 230.186 16.156 231.07 16.156C232.09 16.156 232.6 16.428 232.6 16.972C232.6 17.1987 232.43 18.0147 232.09 19.42L231.852 20.44L231.376 22.48C231.988 21.868 232.713 21.3693 233.552 20.984C234.413 20.576 235.286 20.372 236.17 20.372C237.212 20.372 238.074 20.6893 238.754 21.324C239.434 21.936 239.819 22.8087 239.91 23.942C240.794 22.8767 241.519 21.8793 242.086 20.95C242.652 19.998 243.14 19.012 243.548 17.992C243.752 17.312 244.012 16.836 244.33 16.564C244.67 16.292 245.214 16.156 245.962 16.156C247.118 16.156 247.696 16.5413 247.696 17.312C247.696 17.8787 247.48 19.1933 247.05 21.256C246.506 23.7493 246.234 25.438 246.234 26.322C246.234 27.002 246.324 27.5233 246.506 27.886C246.687 28.2487 246.993 28.43 247.424 28.43C247.832 28.43 248.342 28.1467 248.954 27.58C249.566 27.0133 250.382 26.118 251.402 24.894C251.674 24.5767 251.98 24.418 252.32 24.418ZM236.408 25.744C236.408 24.5427 235.762 23.942 234.47 23.942C233.699 23.942 233.019 24.1573 232.43 24.588C231.863 25.0187 231.41 25.5173 231.07 26.084C231.16 26.9227 231.398 27.546 231.784 27.954C232.169 28.362 232.758 28.566 233.552 28.566C234.458 28.566 235.161 28.3167 235.66 27.818C236.158 27.3193 236.408 26.628 236.408 25.744ZM270.311 24.418C270.605 24.418 270.832 24.554 270.991 24.826C271.172 25.098 271.263 25.472 271.263 25.948C271.263 26.8547 271.047 27.5573 270.617 28.056C269.619 29.2347 268.52 30.2207 267.319 31.014C266.14 31.7847 264.803 32.17 263.307 32.17C262.151 32.17 261.119 31.9547 260.213 31.524C259.329 31.0933 258.626 30.4813 258.105 29.688C256.813 31.32 255.283 32.136 253.515 32.136C252.268 32.136 251.282 31.7733 250.557 31.048C249.831 30.3227 249.469 29.3593 249.469 28.158C249.469 27.0247 249.729 26.1067 250.251 25.404C250.772 24.7013 251.509 24.35 252.461 24.35C253.277 24.35 253.685 24.656 253.685 25.268C253.685 25.4267 253.662 25.71 253.617 26.118C253.549 26.934 253.515 27.3987 253.515 27.512C253.515 28.192 253.809 28.532 254.399 28.532C254.829 28.532 255.237 28.2827 255.623 27.784C256.031 27.2627 256.359 26.56 256.609 25.676C256.881 24.792 257.017 23.8173 257.017 22.752C257.017 21.936 256.915 21.256 256.711 20.712C256.507 20.1453 256.257 19.862 255.963 19.862C255.713 19.862 255.532 19.93 255.419 20.066C255.305 20.1793 255.192 20.3833 255.079 20.678C254.943 21.0407 254.761 21.3353 254.535 21.562C254.308 21.766 253.911 21.868 253.345 21.868C252.846 21.868 252.449 21.698 252.155 21.358C251.86 20.9953 251.713 20.4513 251.713 19.726C251.713 18.57 252.064 17.6633 252.767 17.006C253.469 16.3487 254.376 16.02 255.487 16.02C256.439 16.02 257.3 16.258 258.071 16.734C258.841 17.1873 259.431 17.856 259.839 18.74C260.519 17.8333 261.278 17.1533 262.117 16.7C262.978 16.2467 263.817 16.02 264.633 16.02C265.517 16.02 266.185 16.224 266.639 16.632C267.115 17.04 267.353 17.6973 267.353 18.604C267.353 19.624 267.16 20.4287 266.775 21.018C266.389 21.5847 265.925 21.868 265.381 21.868C264.882 21.868 264.542 21.766 264.361 21.562C264.179 21.358 264.043 21.0633 263.953 20.678C263.907 20.406 263.839 20.202 263.749 20.066C263.658 19.93 263.499 19.862 263.273 19.862C263.001 19.862 262.706 20.1227 262.389 20.644C262.094 21.1427 261.833 21.8113 261.607 22.65C261.403 23.4887 261.301 24.3613 261.301 25.268C261.301 26.3333 261.55 27.1607 262.049 27.75C262.57 28.3167 263.273 28.6 264.157 28.6C265.041 28.6 265.868 28.3053 266.639 27.716C267.432 27.104 268.35 26.1633 269.393 24.894C269.665 24.5767 269.971 24.418 270.311 24.418ZM284.011 32.17C281.789 32.17 280.055 31.5467 278.809 30.3C277.585 29.0307 276.973 27.3647 276.973 25.302C276.973 23.466 277.335 21.8567 278.061 20.474C278.786 19.0913 279.727 18.026 280.883 17.278C282.039 16.53 283.251 16.156 284.521 16.156C285.767 16.156 286.731 16.53 287.411 17.278C288.113 18.0033 288.465 18.944 288.465 20.1C288.465 21.052 288.249 21.8567 287.819 22.514C287.411 23.1713 286.867 23.5 286.187 23.5C285.756 23.5 285.405 23.398 285.133 23.194C284.883 22.99 284.759 22.7067 284.759 22.344C284.759 22.1853 284.781 22.004 284.827 21.8C284.872 21.596 284.906 21.4487 284.929 21.358C285.042 21.018 285.099 20.7007 285.099 20.406C285.099 20.1113 285.019 19.8847 284.861 19.726C284.725 19.5673 284.521 19.488 284.249 19.488C283.727 19.488 283.24 19.726 282.787 20.202C282.333 20.6553 281.971 21.2787 281.699 22.072C281.427 22.8653 281.291 23.738 281.291 24.69C281.291 27.3193 282.435 28.634 284.725 28.634C285.654 28.634 286.651 28.328 287.717 27.716C288.805 27.0813 289.87 26.1407 290.913 24.894C291.185 24.5767 291.491 24.418 291.831 24.418C292.125 24.418 292.352 24.554 292.511 24.826C292.692 25.098 292.783 25.472 292.783 25.948C292.783 26.8093 292.567 27.512 292.137 28.056C291.071 29.3707 289.791 30.3907 288.295 31.116C286.821 31.8187 285.393 32.17 284.011 32.17ZM305.198 24.418C305.493 24.418 305.72 24.554 305.878 24.826C306.06 25.098 306.15 25.472 306.15 25.948C306.15 26.8547 305.935 27.5573 305.504 28.056C304.666 29.076 303.476 30.0167 301.934 30.878C300.416 31.7393 298.784 32.17 297.038 32.17C294.658 32.17 292.811 31.524 291.496 30.232C290.182 28.94 289.524 27.172 289.524 24.928C289.524 23.364 289.853 21.9133 290.51 20.576C291.168 19.216 292.074 18.1393 293.23 17.346C294.409 16.5527 295.735 16.156 297.208 16.156C298.523 16.156 299.577 16.5527 300.37 17.346C301.164 18.1167 301.56 19.1707 301.56 20.508C301.56 22.072 300.994 23.4207 299.86 24.554C298.75 25.6647 296.857 26.5487 294.182 27.206C294.749 28.2487 295.826 28.77 297.412 28.77C298.432 28.77 299.588 28.4187 300.88 27.716C302.195 26.9907 303.328 26.05 304.28 24.894C304.552 24.5767 304.858 24.418 305.198 24.418ZM296.63 19.488C295.792 19.488 295.078 19.9753 294.488 20.95C293.922 21.9247 293.638 23.1033 293.638 24.486V24.554C294.976 24.2367 296.03 23.7607 296.8 23.126C297.571 22.4913 297.956 21.7547 297.956 20.916C297.956 20.4853 297.832 20.1453 297.582 19.896C297.356 19.624 297.038 19.488 296.63 19.488ZM305.796 32.17C304.935 32.17 304.323 31.7167 303.96 30.81C303.62 29.9033 303.45 28.4527 303.45 26.458C303.45 23.5113 303.869 20.712 304.708 18.06C304.912 17.4027 305.241 16.9267 305.694 16.632C306.17 16.3147 306.827 16.156 307.666 16.156C308.119 16.156 308.437 16.2127 308.618 16.326C308.799 16.4393 308.89 16.6547 308.89 16.972C308.89 17.3347 308.72 18.1507 308.38 19.42C308.153 20.3267 307.972 21.12 307.836 21.8C307.7 22.4573 307.587 23.2847 307.496 24.282C308.108 22.514 308.833 21.018 309.672 19.794C310.533 18.57 311.406 17.6633 312.29 17.074C313.197 16.462 314.047 16.156 314.84 16.156C315.633 16.156 316.189 16.3373 316.506 16.7C316.846 17.0627 317.016 17.618 317.016 18.366C317.016 19.0913 316.801 20.406 316.37 22.31C316.189 23.126 316.064 23.738 315.996 24.146C317.129 21.358 318.387 19.3293 319.77 18.06C321.153 16.7907 322.445 16.156 323.646 16.156C325.119 16.156 325.856 16.8927 325.856 18.366C325.856 19.25 325.607 20.848 325.108 23.16C324.677 25.132 324.462 26.4353 324.462 27.07C324.462 27.9767 324.791 28.43 325.448 28.43C325.901 28.43 326.434 28.158 327.046 27.614C327.681 27.0473 328.519 26.1407 329.562 24.894C329.834 24.5767 330.14 24.418 330.48 24.418C330.775 24.418 331.001 24.554 331.16 24.826C331.341 25.098 331.432 25.472 331.432 25.948C331.432 26.8547 331.217 27.5573 330.786 28.056C329.811 29.2573 328.757 30.2433 327.624 31.014C326.513 31.7847 325.244 32.17 323.816 32.17C322.66 32.17 321.787 31.8413 321.198 31.184C320.609 30.504 320.314 29.5293 320.314 28.26C320.314 27.6253 320.473 26.492 320.79 24.86C321.085 23.432 321.232 22.446 321.232 21.902C321.232 21.5393 321.107 21.358 320.858 21.358C320.563 21.358 320.144 21.7433 319.6 22.514C319.056 23.262 318.512 24.2593 317.968 25.506C317.424 26.7527 316.982 28.0673 316.642 29.45C316.393 30.538 316.098 31.2633 315.758 31.626C315.441 31.9887 314.919 32.17 314.194 32.17C313.446 32.17 312.879 31.8187 312.494 31.116C312.131 30.3907 311.95 29.518 311.95 28.498C311.95 27.6367 312.063 26.39 312.29 24.758C312.471 23.3073 312.562 22.3553 312.562 21.902C312.562 21.5393 312.437 21.358 312.188 21.358C311.848 21.358 311.417 21.766 310.896 22.582C310.375 23.398 309.865 24.4407 309.366 25.71C308.89 26.9793 308.505 28.226 308.21 29.45C307.961 30.5153 307.666 31.2407 307.326 31.626C307.009 31.9887 306.499 32.17 305.796 32.17ZM348.947 24.418C349.241 24.418 349.468 24.554 349.627 24.826C349.808 25.098 349.899 25.472 349.899 25.948C349.899 26.8547 349.683 27.5573 349.253 28.056C348.074 29.4387 346.941 30.47 345.853 31.15C344.765 31.83 343.688 32.17 342.623 32.17C341.693 32.17 340.979 31.8413 340.481 31.184C339.982 30.5267 339.733 29.586 339.733 28.362C339.733 27.7047 339.801 26.9907 339.937 26.22H339.869C337.761 30.1867 335.075 32.17 331.811 32.17C330.405 32.17 329.261 31.762 328.377 30.946C327.515 30.13 327.085 29.0533 327.085 27.716C327.085 26.5373 327.345 25.608 327.867 24.928C328.411 24.248 329.147 23.908 330.077 23.908C330.893 23.908 331.301 24.2367 331.301 24.894C331.301 24.9847 331.278 25.1433 331.233 25.37C331.187 25.7327 331.165 26.0047 331.165 26.186C331.165 26.9113 331.323 27.512 331.641 27.988C331.958 28.464 332.389 28.702 332.933 28.702C333.635 28.702 334.349 28.4867 335.075 28.056C335.8 27.6027 336.514 26.968 337.217 26.152H336.775C335.415 26.152 334.327 25.7213 333.511 24.86C332.717 23.9987 332.321 22.8427 332.321 21.392C332.321 19.7147 332.808 18.4227 333.783 17.516C334.757 16.5867 336.117 16.122 337.863 16.122C339.087 16.122 340.345 16.3147 341.637 16.7C341.886 16.36 342.407 16.19 343.201 16.19C343.654 16.19 344.005 16.3033 344.255 16.53C344.527 16.734 344.64 17.0173 344.595 17.38C344.549 17.9467 344.345 18.9553 343.983 20.406C343.643 21.8567 343.382 23.1033 343.201 24.146C343.019 25.1887 342.929 26.1633 342.929 27.07C342.929 27.5007 343.008 27.8407 343.167 28.09C343.348 28.3167 343.597 28.43 343.915 28.43C344.345 28.43 344.867 28.1693 345.479 27.648C346.091 27.1267 346.941 26.2087 348.029 24.894C348.278 24.5767 348.584 24.418 348.947 24.418ZM339.019 23.534C339.789 22.1967 340.401 20.7687 340.855 19.25C340.039 19.0007 339.313 18.876 338.679 18.876C337.772 18.876 337.069 19.0913 336.571 19.522C336.072 19.9527 335.823 20.5647 335.823 21.358C335.823 21.9927 336.027 22.5253 336.435 22.956C336.865 23.3867 337.398 23.602 338.033 23.602C338.327 23.602 338.656 23.5793 339.019 23.534ZM366.932 24.418C367.226 24.418 367.453 24.554 367.612 24.826C367.793 25.098 367.884 25.472 367.884 25.948C367.884 26.8547 367.668 27.5573 367.238 28.056C366.24 29.2347 365.141 30.2207 363.94 31.014C362.761 31.7847 361.424 32.17 359.928 32.17C358.772 32.17 357.74 31.9547 356.834 31.524C355.95 31.0933 355.247 30.4813 354.726 29.688C353.434 31.32 351.904 32.136 350.136 32.136C348.889 32.136 347.903 31.7733 347.178 31.048C346.452 30.3227 346.09 29.3593 346.09 28.158C346.09 27.0247 346.35 26.1067 346.872 25.404C347.393 24.7013 348.13 24.35 349.082 24.35C349.898 24.35 350.306 24.656 350.306 25.268C350.306 25.4267 350.283 25.71 350.238 26.118C350.17 26.934 350.136 27.3987 350.136 27.512C350.136 28.192 350.43 28.532 351.02 28.532C351.45 28.532 351.858 28.2827 352.244 27.784C352.652 27.2627 352.98 26.56 353.23 25.676C353.502 24.792 353.638 23.8173 353.638 22.752C353.638 21.936 353.536 21.256 353.332 20.712C353.128 20.1453 352.878 19.862 352.584 19.862C352.334 19.862 352.153 19.93 352.04 20.066C351.926 20.1793 351.813 20.3833 351.7 20.678C351.564 21.0407 351.382 21.3353 351.156 21.562C350.929 21.766 350.532 21.868 349.966 21.868C349.467 21.868 349.07 21.698 348.776 21.358C348.481 20.9953 348.334 20.4513 348.334 19.726C348.334 18.57 348.685 17.6633 349.388 17.006C350.09 16.3487 350.997 16.02 352.108 16.02C353.06 16.02 353.921 16.258 354.692 16.734C355.462 17.1873 356.052 17.856 356.46 18.74C357.14 17.8333 357.899 17.1533 358.738 16.7C359.599 16.2467 360.438 16.02 361.254 16.02C362.138 16.02 362.806 16.224 363.26 16.632C363.736 17.04 363.974 17.6973 363.974 18.604C363.974 19.624 363.781 20.4287 363.396 21.018C363.01 21.5847 362.546 21.868 362.002 21.868C361.503 21.868 361.163 21.766 360.982 21.562C360.8 21.358 360.664 21.0633 360.574 20.678C360.528 20.406 360.46 20.202 360.37 20.066C360.279 19.93 360.12 19.862 359.894 19.862C359.622 19.862 359.327 20.1227 359.01 20.644C358.715 21.1427 358.454 21.8113 358.228 22.65C358.024 23.4887 357.922 24.3613 357.922 25.268C357.922 26.3333 358.171 27.1607 358.67 27.75C359.191 28.3167 359.894 28.6 360.778 28.6C361.662 28.6 362.489 28.3053 363.26 27.716C364.053 27.104 364.971 26.1633 366.014 24.894C366.286 24.5767 366.592 24.418 366.932 24.418ZM372.234 32.17C371.237 32.17 370.477 31.898 369.956 31.354C369.457 30.81 369.208 30.096 369.208 29.212C369.208 28.192 369.491 27.376 370.058 26.764C370.647 26.152 371.463 25.846 372.506 25.846C373.503 25.846 374.251 26.0953 374.75 26.594C375.271 27.07 375.532 27.784 375.532 28.736C375.532 29.7787 375.237 30.6173 374.648 31.252C374.059 31.864 373.254 32.17 372.234 32.17ZM373.424 22.48C372.427 22.48 371.667 22.208 371.146 21.664C370.647 21.12 370.398 20.406 370.398 19.522C370.398 18.502 370.681 17.686 371.248 17.074C371.837 16.462 372.653 16.156 373.696 16.156C374.693 16.156 375.441 16.4053 375.94 16.904C376.461 17.38 376.722 18.094 376.722 19.046C376.722 20.0887 376.427 20.9273 375.838 21.562C375.249 22.174 374.444 22.48 373.424 22.48Z" fill="#FF4D4F"/>
</svg>
