<svg width="92" height="78" viewBox="0 0 92 78" fill="none" xmlns="http://www.w3.org/2000/svg">
<path d="M47.3263 17.4665C36.7252 3.42543 30.0845 5.94289 25.2567 4.14141C20.4288 2.33993 15.2768 4.37353 9.43337 7.84093C1.16957 12.7446 3.03391 30.3034 3.03391 30.3034L7.22056 42.4598L13.5973 52.4447C13.5973 52.4447 27.3387 73.3431 45.6606 74.5143C62.3392 75.5804 74.7749 60.5473 84.1099 48.9268C89.5158 32.3869 91.5158 17.5756 84.1099 9.97113C77.8719 3.56597 71.8171 3.92844 66.0646 5.39065C52.0104 8.96309 47.5439 19.4571 47.3263 17.4665Z" fill="#FF434B"/>
<path d="M87.459 42.8065C84.5147 52.4545 79.1349 57.559 72.4013 63.4829C65.4194 70.7986 56.7817 75.978 47.3626 76.1569C29.8634 76.4892 5.08111 50.7456 1.70196 27.8902C2.47504 26.6898 3.37846 27.9839 3.57698 28.9605C8.29585 52.173 30.006 72.6921 47.2984 74.2379C56.6534 74.0612 63.941 68.5629 71.0414 62.112C77.3105 56.4083 81.2572 53.2717 85.4957 42.507C85.6373 41.5163 87.6008 41.8221 87.459 42.8065Z" fill="white"/>
<path d="M84.9104 44.6508C100.853 -8.99748 55.526 2.73018 46.401 20.0967C37.0269 0.581003 -0.840853 -4.8853 3.60062 29.6676C2.92984 30.4068 1.72518 28.5844 1.72518 28.5844C-2.2477 -4.59602 34.6445 -3.60306 46.401 16.6336C57.5491 0.310873 101.486 -9.72685 87.5342 42.7325C87.2684 43.7321 85.6173 45.3563 84.9104 44.6508Z" fill="white"/>
</svg>
